<svg xmlns="http://www.w3.org/2000/svg" viewBox="0 0 82.34 70.57"><defs><style>.cls-1{fill:#fff;}</style></defs><g id="Layer_2" data-name="Layer 2"><g id="Layer_1-2" data-name="Layer 1"><path class="cls-1" d="M41.19,0H76.3a5.78,5.78,0,0,1,5.53,3.5,5.53,5.53,0,0,1,.49,2.35q0,29.43,0,58.87a5.84,5.84,0,0,1-5.86,5.82q-35.28,0-70.57,0A5.65,5.65,0,0,1,.49,67,5.47,5.47,0,0,1,0,64.75Q0,35.29,0,5.82A5.58,5.58,0,0,1,3.6.48,6,6,0,0,1,6,0Q23.57,0,41.19,0ZM5.91,17.6H76.42V5.89H38.79a.57.57,0,0,0-.59.4c-.81,1.67-1.66,3.31-2.47,5a.78.78,0,0,1-.82.52q-14.14,0-28.29,0H5.91Zm35.28,3.1a17.6,17.6,0,0,0-17.66,17,17.26,17.26,0,0,0,4.62,12.53,17.13,17.13,0,0,0,13,5.75A16.89,16.89,0,0,0,53,51.36a17.34,17.34,0,0,0,5.78-13.64A17.61,17.61,0,0,0,41.19,20.7ZM76.43,58.85H5.93v5.81h70.5ZM29.38,3H11.8V8.78H29.38Z"/><path class="cls-1" d="M41.18,26.59A11.75,11.75,0,1,1,29.41,38.06,11.75,11.75,0,0,1,41.18,26.59ZM33.87,37.87v.23c0,.86.44,1.47,1.09,1.54a1.39,1.39,0,0,0,1.76-1.28,6.09,6.09,0,0,1,.17-1.2A4.33,4.33,0,0,1,40.11,34a13.45,13.45,0,0,1,1.42-.19,1.3,1.3,0,0,0,1-1.22c0-.82-.34-1.52-.94-1.59a6.18,6.18,0,0,0-2.86.31,7.7,7.7,0,0,0-3.22,2.25A6.85,6.85,0,0,0,33.87,37.87Z"/></g></g></svg>