<svg xmlns="http://www.w3.org/2000/svg" viewBox="0 0 200.06 150.1"><defs><style>.cls-1{fill:#fff;}</style></defs><g id="Layer_2" data-name="Layer 2"><g id="Layer_1-2" data-name="Layer 1"><path class="cls-1" d="M127.19,6c-.33,1.19-.78,2.91-1.27,4.62Q121.23,27,116.51,43.46c-2,6.78-4,13.54-6,20.32-2.7,9.36-5.34,18.74-8,28.1-1.72,6-3.54,11.87-5.26,17.82-2,6.87-3.94,13.75-5.91,20.62l-4.77,16.54c-.66,2.26-2.32,3.88-4.91,3-2-.69-4.14-1.09-6.19-1.73A3.57,3.57,0,0,1,73,143.34c3.51-12.24,7-24.5,10.52-36.74,2.42-8.37,5-16.72,7.37-25.1,3.26-11.32,6.45-22.66,9.71-34,2.32-8.08,4.71-16.13,7-24.2,1.94-6.71,3.85-13.43,5.81-20.14.65-2.24,2.24-3.82,5-2.93,2,.67,4.15,1.1,6.2,1.74C126.45,2.54,127.2,3.65,127.19,6Z"/><path class="cls-1" d="M19.17,75.11a12.83,12.83,0,0,1,1.4,1q20.74,20.73,41.48,41.47c2.13,2.13,2.13,3.78,0,5.92-1.62,1.62-3.23,3.24-4.85,4.85s-3.6,1.74-5.32,0Q26.57,103.13,1.28,77.82a3.62,3.62,0,0,1,0-5.5Q26.59,47,51.93,21.63c1.65-1.64,3.55-1.61,5.23.06s3.37,3.36,5.05,5c1.91,1.92,1.91,3.68,0,5.61L20.8,73.73C20.4,74.13,20,74.46,19.17,75.11Z"/><path class="cls-1" d="M180.61,75.15c-.5-.53-.84-.9-1.2-1.26L138,32.51c-2.15-2.15-2.16-3.79,0-5.91,1.65-1.65,3.29-3.31,4.95-5a3.38,3.38,0,0,1,5.23,0Q173.46,47,198.76,72.26a3.65,3.65,0,0,1,0,5.6l-50.49,50.49c-1.78,1.78-3.63,1.77-5.42,0q-2.43-2.41-4.85-4.85c-2.08-2.08-2.09-3.76,0-5.82l41.48-41.48C179.76,75.86,180.13,75.58,180.61,75.15Z"/></g></g></svg>