<svg xmlns="http://www.w3.org/2000/svg" viewBox="0 0 429.99 476.93"><defs><style>.cls-1{fill:#c392b1;}.cls-2{fill:#fff;}.cls-3{fill:#cce8f9;}.cls-4{fill:#fcb97c;}.cls-5{fill:#64b6cb;}</style></defs><g id="Layer_2" data-name="Layer 2"><g id="Layer_1-2" data-name="Layer 1"><path class="cls-1" d="M219.26,126.68q23.82,0,47.63,0a7.86,7.86,0,0,1,7.51,4.75,7.57,7.57,0,0,1,.66,3.19q.06,39.93,0,79.87a7.71,7.71,0,0,1-4.9,7.3,7.5,7.5,0,0,1-3,.6q-47.88.06-95.75,0a7.67,7.67,0,0,1-7.34-4.85,7.43,7.43,0,0,1-.63-3q-.06-40,0-79.95a7.58,7.58,0,0,1,4.87-7.25,8.25,8.25,0,0,1,3.19-.63Q195.35,126.66,219.26,126.68Zm-47.87,23.88h95.66V134.67l-.37,0q-25.34,0-50.67,0a.79.79,0,0,0-.81.55c-1.1,2.26-2.24,4.5-3.34,6.76a1.07,1.07,0,0,1-1.12.7q-19.19,0-38.38,0h-1Zm47.87,4.19a23.9,23.9,0,0,0-24,23.06,24,24,0,0,0,23.91,24.8,22.94,22.94,0,0,0,16.13-6.25,23.56,23.56,0,0,0,7.84-18.51C243,165.63,232.46,154.56,219.26,154.75Zm47.82,51.77H171.42v7.89h95.66ZM203.24,130.7H179.39v7.89h23.85Z"/><path class="cls-1" d="M219.24,162.74a15.95,15.95,0,1,1-16,15.57A16,16,0,0,1,219.24,162.74Zm-9.9,15.31v.32c0,1.17.59,2,1.47,2.09a1.88,1.88,0,0,0,2.38-1.75,8.13,8.13,0,0,1,.24-1.62,5.87,5.87,0,0,1,4.36-4.35,15.35,15.35,0,0,1,1.94-.26,1.78,1.78,0,0,0,1.42-1.65c0-1.12-.47-2.07-1.28-2.16a8.14,8.14,0,0,0-3.88.42,10.37,10.37,0,0,0-4.36,3A9.19,9.19,0,0,0,209.34,178.05Z"/><path class="cls-2" d="M80.87,130.65c-.21.76-.5,1.85-.81,2.94q-3,10.44-6,20.87c-1.25,4.31-2.54,8.61-3.79,12.92-1.71,6-3.39,11.92-5.12,17.87-1.09,3.78-2.24,7.55-3.34,11.33-1.27,4.36-2.51,8.74-3.76,13.11l-3,10.52c-.42,1.43-1.48,2.46-3.12,1.9-1.29-.44-2.64-.7-3.93-1.11a2.27,2.27,0,0,1-1.56-3c2.24-7.79,4.45-15.58,6.7-23.36,1.54-5.33,3.14-10.64,4.68-16,2.08-7.2,4.1-14.41,6.17-21.61,1.48-5.13,3-10.25,4.49-15.38,1.23-4.27,2.44-8.54,3.69-12.8.42-1.43,1.43-2.43,3.15-1.87,1.29.43,2.64.7,3.94,1.1S80.87,129.15,80.87,130.65Z"/><path class="cls-2" d="M12.19,174.59a8.76,8.76,0,0,1,.89.65l26.37,26.37c1.36,1.35,1.35,2.4,0,3.76q-1.53,1.55-3.08,3.08a2.15,2.15,0,0,1-3.38,0L.81,176.31a2.32,2.32,0,0,1,0-3.5Q16.9,156.69,33,140.58a2.14,2.14,0,0,1,3.32,0c1.08,1.06,2.14,2.14,3.21,3.21,1.22,1.22,1.21,2.34,0,3.57L13.22,173.71C13,174,12.68,174.17,12.19,174.59Z"/><path class="cls-2" d="M114.83,174.61l-.76-.8L87.76,147.5c-1.37-1.37-1.38-2.41,0-3.76,1-1.05,2.09-2.1,3.15-3.14a2.14,2.14,0,0,1,3.32,0q16.1,16.08,32.16,32.16a2.31,2.31,0,0,1,0,3.56l-32.1,32.1a2.16,2.16,0,0,1-3.44,0l-3.09-3.09c-1.32-1.32-1.32-2.39,0-3.7l26.38-26.37C114.29,175.07,114.52,174.88,114.83,174.61Z"/><path class="cls-3" d="M360.06,137a74.8,74.8,0,0,1,11.31-9,33.09,33.09,0,0,1,11.77-5,31.5,31.5,0,0,1,7.19-.56,37.74,37.74,0,0,1,12,2.19,28.69,28.69,0,0,1,8.46,4.87,26.31,26.31,0,0,1,6.92,8.86,28.19,28.19,0,0,1,2.72,9.28,58.88,58.88,0,0,1,.49,7.38,28.1,28.1,0,0,1-2.58,11.3c-1.22,2.65-2.7,5.18-4.11,7.74a1.16,1.16,0,0,1-.84.5c-8,0-15.95,0-23.92,0a.86.86,0,0,1-.89-.58c-2.35-4.76-4.75-9.49-7.09-14.25a4.38,4.38,0,0,0-7.2-1.18,6,6,0,0,0-1.11,2.17c-1.42,4.59-2.76,9.21-4.15,13.81s-2.83,9.37-4.25,14.06a1.5,1.5,0,0,1-.26.65c-.73-2.49-1.46-5-2.17-7.47-.88-3.1-1.75-6.21-2.63-9.31Q357.35,164.19,355,156c-1.1-3.86-2.2-7.73-3.33-11.58a11.74,11.74,0,0,0-.95-2.54,4.36,4.36,0,0,0-8.07,1.59Q338.83,158.72,335,174c0,.13,0,.27-.05.49h-1c-9,0-18,0-27,0a1.42,1.42,0,0,1-1.37-.77,41.45,41.45,0,0,1-5.9-13.95,29,29,0,0,1-.47-8.38,49,49,0,0,1,1.08-7.44,27.54,27.54,0,0,1,5.31-10.87,27.08,27.08,0,0,1,8.07-6.71A30.06,30.06,0,0,1,325,122.88a60.51,60.51,0,0,1,7.72-.49,27.42,27.42,0,0,1,9.37,2.09,40.28,40.28,0,0,1,8.69,4.86c2,1.46,4,3,6,4.58C357.87,134.86,358.92,135.94,360.06,137Z"/><path class="cls-3" d="M313.15,183.24h1.28c7.83,0,15.66,0,23.48,0a4.47,4.47,0,0,0,4.73-3.71c1.52-6.15,3.05-12.29,4.62-18.61.64,2.18,1.24,4.18,1.81,6.2.95,3.35,1.87,6.72,2.82,10.08q2.33,8.22,4.68,16.44c1.18,4.12,2.35,8.24,3.55,12.36a4.34,4.34,0,0,0,4.51,3.31,4.57,4.57,0,0,0,4.08-3.56l2.46-8.23q2.18-7.26,4.36-14.51l2.79-9.29.17-.35,1,2c1,1.93,1.94,3.88,3,5.78a4,4,0,0,0,3.79,2.05h20.64l-2.25,2.09c-.12.11-.26.22-.38.35-2.75,2.69-5.49,5.39-8.25,8.07q-4.92,4.77-9.86,9.5c-1.51,1.47-3,2.93-4.55,4.39l-9.55,9.2c-1.5,1.44-3,2.89-4.5,4.32s-3.26,3.1-4.94,4.59a4.25,4.25,0,0,1-5.79-.38l-.06-.06-8.13-7.95q-2.64-2.56-5.29-5.12l-4.62-4.45-5.3-5.12-4.62-4.45c-3.39-3.27-6.76-6.55-10.16-9.81C316.92,186.72,315.12,185.07,313.15,183.24Z"/><path class="cls-4" d="M282.58,264.15l31.1,31.1c-.16.16-.37.4-.59.62q-30.42,30.4-60.81,60.83a2.24,2.24,0,0,1-1.74.73c-9.64,0-19.28,0-28.92,0h-1.21v-.94q0-14.7,0-29.41a2,2,0,0,1,.48-1.24q30.66-30.7,61.35-61.37Zm-45.82,59.41-.12.1c-1.43,1.42-2.75,3-4.3,4.23a5.88,5.88,0,0,0-2.39,5.76,37.92,37.92,0,0,1,0,4.66h9.61v9.53c2.59,0,5.1,0,7.62,0a.77.77,0,0,0,.5-.2l6.57-6.54Zm49.95-44.81c0-1.38-.6-2.11-1.56-2a3.61,3.61,0,0,0-1.83,1q-19.87,19.82-39.71,39.68a5.21,5.21,0,0,0-.47.47,2,2,0,0,0,0,2.4,2,2,0,0,0,2.33,0,4.68,4.68,0,0,0,.55-.54l9.89-9.89q14.9-14.9,29.79-29.81A8.53,8.53,0,0,0,286.71,278.75Z"/><path class="cls-4" d="M287.55,259.14c4-4,8.1-8.1,12.17-12.15a9.32,9.32,0,0,1,6.51-3,8.35,8.35,0,0,1,6.27,2.11q9.45,9.28,18.82,18.65a8.66,8.66,0,0,1,2.36,5.31,9.77,9.77,0,0,1-1.22,5.94,8.11,8.11,0,0,1-1.3,1.72c-4.16,4.2-8.34,8.37-12.48,12.51Z"/><path class="cls-5" d="M164.68,365.51c-12.5-4.78-19.11-16.11-18.24-27.69a27.48,27.48,0,0,1,43.13-20.59,26.29,26.29,0,0,1,11.19,17.17c2.26,12.18-3.22,25.16-17.8,31.23v29.61q0,13.17,0,26.35a48.73,48.73,0,0,1-4.76,21.54,52.55,52.55,0,0,1-7.6,11.3,64.92,64.92,0,0,1-17.76,14.25,54.77,54.77,0,0,1-17.42,6.4c-3.77.64-7.59,1.06-11.4,1.47a48.07,48.07,0,0,1-6.88.36c-10.08-.41-19.82-2.21-29-6.71a73.45,73.45,0,0,1-15.72-10.61A52.86,52.86,0,0,1,60.07,444a44.06,44.06,0,0,1-4.47-13.89c-1.3-8.59-.47-17.23-.71-25.84,0-.35,0-.71,0-.63-5.45-1.48-10.71-2.77-15.88-4.33a55.24,55.24,0,0,1-17.58-9.5A55.42,55.42,0,0,1,4.21,368.61C2.12,364,.45,359.09.4,354c-.23-25.9-.29-51.79-.4-77.69A16.49,16.49,0,0,1,.31,274C1,269,6,266.16,10.4,266.49a2.16,2.16,0,0,0,1.64-.76c3.83-5.37,9-8.36,15.58-8.28,7.81.09,13.58,4,16.62,11.15a17.89,17.89,0,0,1-7.56,22.75c-5.57,3.31-11.32,3.35-17.15.68-.28-.13-.54-.27-.82-.38a1.57,1.57,0,0,0-.44,0v2.17c0,17.93.06,35.87,0,53.8,0,7.67,2,14.62,6.83,20.57a44,44,0,0,0,11.84,10.15,55,55,0,0,0,14.77,5.88,33.9,33.9,0,0,0,5.32.86c10.86,1.09,21.37-.15,31.21-5.13a43.06,43.06,0,0,0,16.6-14.3,25.84,25.84,0,0,0,4.59-12.88c.21-3.26.36-6.54.36-9.81q.06-25.6,0-51.31c-1.67.55-3.26,1.12-4.87,1.6-7.89,2.32-16.16-1.83-20-8.38a18.24,18.24,0,0,1,6.76-25c6.34-3.46,12.55-3.28,18.53.45,2.23,1.38,3.88,3.68,5.84,5.51a2.36,2.36,0,0,0,1.54.69,9.63,9.63,0,0,1,10.54,9.86c-.05,24.4.07,48.79-.07,73.19A47.24,47.24,0,0,1,117.7,378.8a61.74,61.74,0,0,1-21.13,17.4A61,61,0,0,1,76,402.66c-.88.11-1.75.34-2.76.54,0,.47-.07,1-.07,1.53,0,5.92-.11,11.84,0,17.75a30.5,30.5,0,0,0,8.51,20.8,44.91,44.91,0,0,0,20.61,12.85c3.82,1.1,7.86,1.48,11.79,2.17,5.57,1,11.1.17,16.54-.82a37.32,37.32,0,0,0,13.71-5.09A70,70,0,0,0,154.51,445c4.73-4.44,8.3-9.82,9.39-16.4a61,61,0,0,0,.74-9.55C164.71,401.26,164.68,383.45,164.68,365.51ZM183,339.58a9.19,9.19,0,0,0-9.23-9,9.12,9.12,0,0,0,.05,18.23A9.23,9.23,0,0,0,183,339.58Z"/><path class="cls-5" d="M430,0V1.37q0,40.89,0,81.77a12.56,12.56,0,0,1-3.2,8.48,13.31,13.31,0,0,1-7.16,4.27,8.27,8.27,0,0,1-2.05.24q-57.53,0-115,0a11.85,11.85,0,0,1-7.68-3,12.9,12.9,0,0,1-4.43-7.25,9.66,9.66,0,0,1-.29-2.12q0-37.08,0-74.16V8.7h17.47V0Zm-8.74,8.73H316.32V9.82q0,33.14,0,66.29c0,3.74.52,7.52-.72,11.29h1.55q49.69,0,99.39,0a4.64,4.64,0,0,0,4.75-4.74q0-36.51,0-73ZM307.59,17.48h-8.75V82.86a5.06,5.06,0,0,0,.18,1.27,4.34,4.34,0,0,0,4.64,3.24,4.44,4.44,0,0,0,3.93-4.62V17.48Z"/><path class="cls-5" d="M325.14,17.45h43.58V61.1H325.14Zm8.73,8.75V52.34H360V26.2Z"/><path class="cls-5" d="M325.14,69.93h43.57v8.66H325.14Z"/><path class="cls-5" d="M412.48,17.5v8.6H377.59V17.5Z"/><path class="cls-5" d="M412.48,35v8.6H377.59V35Z"/><path class="cls-5" d="M412.48,52.48v8.6H377.59v-8.6Z"/><path class="cls-5" d="M377.56,78.58V70h34.89v8.6Z"/></g></g></svg>