<svg xmlns="http://www.w3.org/2000/svg" viewBox="0 0 699.8 599.85"><defs><style>.cls-1{fill:#fff;}</style></defs><g id="Layer_2" data-name="Layer 2"><g id="Layer_1-2" data-name="Layer 1"><path class="cls-1" d="M350.07,84.08a431.42,431.42,0,0,1,65-51.93c20.84-13.72,43.27-24,67.65-28.85A180,180,0,0,1,524.08.12c23.41.83,46.59,4.21,68.78,12.59,17.77,6.72,34,15.7,48.67,28a151.77,151.77,0,0,1,39.76,50.94,161.17,161.17,0,0,1,15.64,53.32c1.47,14.1,3.1,28.3,2.84,42.42a161.41,161.41,0,0,1-14.87,65c-7,15.23-15.52,29.77-23.59,44.5a6.58,6.58,0,0,1-4.86,2.83c-45.83.15-91.66.1-137.5.19-2.75,0-3.9-1-5.08-3.35-13.53-27.34-27.35-54.54-40.81-81.91-8.86-18-31.1-18.81-41.38-6.79a35.29,35.29,0,0,0-6.37,12.47c-8.12,26.43-15.87,53-23.83,79.44q-12.15,40.41-24.43,80.78c-.35,1.18-.42,2.45-1.54,3.73-4.15-14.3-8.35-28.59-12.44-42.91C358,323.5,353,305.64,348,287.8Q334.52,240.4,321,193c-6.34-22.2-12.66-44.42-19.14-66.58-1.45-5-2.93-10.12-5.48-14.57-4.87-8.55-16.34-13.75-25.17-12-11.69,2.3-18.39,9.78-21.22,21.1q-22,88-44,176a23.28,23.28,0,0,0-.29,2.83h-5.54c-51.67,0-103.33-.06-155,.12-3.91,0-6-1.38-7.87-4.38C21.65,270.61,9.13,244.29,3.39,215.3A167.46,167.46,0,0,1,.66,167.16C2,152.74,3.42,138.46,6.93,124.4c5.74-23,15.49-44.07,30.52-62.49A154.75,154.75,0,0,1,83.83,23.3,172.43,172.43,0,0,1,148.34,2.93C163.08,1.35,178-.24,192.75.12c18.54.47,36.51,5.13,53.84,12,17.92,7.08,34.39,16.77,50,28,11.7,8.41,23.1,17.27,34.3,26.35C337.51,71.8,343.52,78,350.07,84.08Z"/><path class="cls-1" d="M80.44,349.88H87.8q67.48,0,135,0c14.77,0,23.8-7.68,27.18-21.33,8.73-35.3,17.51-70.59,26.53-106.93,3.67,12.51,7.14,24,10.42,35.6,5.46,19.3,10.72,38.66,16.19,57.95q13.38,47.3,26.93,94.55c6.76,23.67,13.49,47.35,20.38,71,3.74,12.81,13.93,19.62,26,19.08,10.26-.46,19.58-7.68,23.43-20.49q7.09-23.67,14.14-47.34,12.51-41.7,25.05-83.39,8-26.7,16.07-53.39a21.58,21.58,0,0,1,.95-2c2.19,4.28,4.08,8,6,11.69,5.68,11.09,11.18,22.28,17.12,33.23,4.61,8.47,12.5,11.72,21.79,11.73q56,.09,112,0h6.67l-12.9,12c-.73.68-1.51,1.31-2.22,2-15.81,15.46-31.56,31-47.43,46.39q-28.25,27.41-56.64,54.66l-26.2,25.21Q446.71,516.58,419.28,543c-8.61,8.29-17.18,16.62-25.87,24.83-9.38,8.87-18.7,17.81-28.37,26.36-10.1,8.95-24.27,6.46-33.29-2.14l-.35-.35Q308,568.87,284.68,546q-15.17-14.78-30.44-29.45Q241,503.79,227.69,491q-15.24-14.72-30.45-29.44Q184,448.79,170.68,436c-19.47-18.8-38.89-37.67-58.44-56.4C102.1,369.91,91.74,360.43,80.44,349.88Z"/></g></g></svg>