<svg xmlns="http://www.w3.org/2000/svg" viewBox="0 0 218.98 46.72"><defs><style>.cls-1{fill:#cce8f9;}</style></defs><g id="Layer_2" data-name="Layer 2"><g id="Layer_1-2" data-name="Layer 1"><path class="cls-1" d="M219,17.65c-1,.05-2,.13-3,.13q-91.29,0-182.57,0a6,6,0,0,0-4.79,2c-5.3,5.46-10.71,10.82-16.14,16.17a2.52,2.52,0,0,0-.84,3.06,5.84,5.84,0,0,1-4.46,7.62A6,6,0,1,1,5.28,34.8a2.8,2.8,0,0,1,1.66.09c2,1.17,3.16-.09,4.44-1.39C16.82,28,22.35,22.57,27.77,17a5.22,5.22,0,0,1,4.11-1.71q92.13.09,184.27.08l2.83,0ZM6,37.32a3.4,3.4,0,0,0,0,6.8A3.4,3.4,0,0,0,9.4,40.8,3.49,3.49,0,0,0,6,37.32Z"/><path class="cls-1" d="M219,26.71c-.95,0-1.89,0-2.83,0q-83.91,0-167.82,0A5.27,5.27,0,0,0,44,28.45c-2.47,2.68-5.1,5.22-7.72,7.76A2.3,2.3,0,0,0,35.57,39a5.93,5.93,0,1,1-6.47-4.13,3.73,3.73,0,0,1,2.21.19c1.73,1,2.69.06,3.81-1.1,2.79-2.9,5.63-5.76,8.56-8.52a4.46,4.46,0,0,1,2.77-1.15q85.43,0,170.84,0a16.07,16.07,0,0,1,1.69.15Zm-185.64,14a3.56,3.56,0,0,0-3.4-3.39,3.41,3.41,0,1,0,3.4,3.39Z"/><path class="cls-1" d="M215.09,0A4,4,0,0,1,219,3.79a3.92,3.92,0,0,1-3.83,3.83,3.88,3.88,0,0,1-3.79-3.85A3.83,3.83,0,0,1,215.09,0Zm2.24,3.75A2.21,2.21,0,0,0,215,1.65a2.09,2.09,0,0,0-2,2.22A2.05,2.05,0,0,0,215.15,6,2.17,2.17,0,0,0,217.33,3.75Z"/><path class="cls-1" d="M173.41,3.75a3.81,3.81,0,1,1-7.61.07A3.84,3.84,0,0,1,169.48,0,4,4,0,0,1,173.41,3.75Zm-3.89-2.1a2.08,2.08,0,0,0-2.06,2.17A2.06,2.06,0,0,0,169.66,6a2.18,2.18,0,0,0,2.11-2.16A2.22,2.22,0,0,0,169.52,1.65Z"/><path class="cls-1" d="M184.77,0a3.93,3.93,0,0,1,3.81,3.84A3.79,3.79,0,1,1,181,3.73,3.81,3.81,0,0,1,184.77,0Zm2.16,3.85a2.18,2.18,0,0,0-2.19-2.2A2.16,2.16,0,0,0,184.68,6,2.1,2.1,0,0,0,186.93,3.85Z"/><path class="cls-1" d="M203.74,3.89a3.77,3.77,0,1,1-7.53-.22A3.78,3.78,0,0,1,200,0,3.86,3.86,0,0,1,203.74,3.89Zm-1.57,0a2.29,2.29,0,0,0-2.09-2.21A2.16,2.16,0,1,0,199.86,6,2.21,2.21,0,0,0,202.17,3.86Z"/></g></g></svg>