<svg xmlns="http://www.w3.org/2000/svg" viewBox="0 0 298.08 255.08"><defs><style>.cls-1{fill:#fcb97c;}.cls-2{fill:#fff;}</style></defs><g id="Layer_2" data-name="Layer 2"><g id="Layer_1-2" data-name="Layer 1"><path class="cls-1" d="M117.05,179v67.18a8.81,8.81,0,0,1-8.9,8.89H32.31a8.81,8.81,0,0,1-8.89-8.89q0-67.23,0-134.47A8.67,8.67,0,0,1,32.19,103q38,0,76.08,0a8.68,8.68,0,0,1,8.77,8.77Q117.07,145.37,117.05,179Z"/><path class="cls-1" d="M17.52,126.35V138H8.18c-2,0-2.29-.32-2.32-2.25,0-.23,0-.45,0-.79-1.49,0-2.93-.05-4.36,0-1.09.05-1.45-.48-1.45-1.45,0-.75,0-1.49,0-2.23,0-2,.37-1.88,2.06-2.16a11.67,11.67,0,0,1,1.87,0h1.7c.09-.13.18-.18.18-.24.2-2.54.24-2.57,2.86-2.57Z"/><path class="cls-1" d="M122.94,138V126.35h9.46c1.82,0,2.15.32,2.21,2.14,0,.19,0,.37,0,.67,1.18,0,2.3,0,3.42,0,2.39.12,2.39.6,2.39,2.32,0,4.24.07,3.43-3.49,3.5h-2.26a1.72,1.72,0,0,0-.11.47c.21,2.27-.57,2.65-2.72,2.59C128.94,138,126,138,122.94,138Z"/><path class="cls-1" d="M17.51,149.76v11.68H7.91c-1.63,0-2-.42-2-2.06v-1c-1.5,0-3-.05-4.44,0C.38,158.47,0,157.94,0,157c0-.74,0-1.48,0-2.22,0-1.8.15-2.06,2.22-2.24,1.12-.1,2.26,0,3.39-.05,0,0,.06,0,.1-.06a.58.58,0,0,0,.11-.18c.13-2.39.28-2.53,2.66-2.53Z"/><path class="cls-1" d="M123,161.44V149.76c3.48,0,6.9,0,10.32,0a1.33,1.33,0,0,1,1.31,1.37c0,.42,0,.85,0,1.41,1.2,0,2.32,0,3.43,0,2.47.12,2.44.61,2.44,2.4,0,4.16,0,3.37-3.45,3.43h-2.26c-.08.18-.14.24-.14.31-.09,2.62-.2,2.73-2.79,2.73Z"/><path class="cls-1" d="M17.48,184.85c-3.44,0-6.82,0-10.2,0a1.38,1.38,0,0,1-1.41-1.4c0-.49,0-1,0-1.63-1.54,0-3-.05-4.48,0-1,0-1.33-.46-1.36-1.31s0-1.56,0-2.34c0-1.83.23-2,2.15-2.18a35.65,35.65,0,0,1,3.58,0c.39-2.81.39-2.81,3.26-2.81h8.48Z"/><path class="cls-1" d="M134.72,181.81c-.39,3-.39,3-3.5,3H123V173.16h9.28c2,0,2.28.28,2.35,2.23,0,.15,0,.3.06.58,1.14,0,2.26,0,3.38,0,2.45.13,2.42.61,2.42,2.41,0,4.15,0,3.35-3.46,3.42Z"/><path class="cls-1" d="M5.86,199.38v-1.19a1.45,1.45,0,0,1,1.56-1.61c3.31,0,6.63,0,10,0v11.69H8c-1.79,0-2.17-.38-2.18-2.16v-.88H1.56C.26,205.21,0,205,0,203.64c0-.7,0-1.4,0-2.1,0-1.89.34-1.88,2.09-2.14a12.94,12.94,0,0,1,1.87,0Z"/><path class="cls-1" d="M134.69,205.22c-.3,3-.3,3-3.26,3H123V196.57h9.43c1.81,0,2.15.33,2.21,2.15,0,.18,0,.37,0,.66,1.17,0,2.3,0,3.42,0,2.39.12,2.39.61,2.39,2.32,0,4.25.07,3.44-3.49,3.51Z"/><path class="cls-1" d="M17.53,220v11.69H8.08c-1.85,0-2.2-.35-2.22-2.24,0-.23,0-.45,0-.8-1.52,0-3,0-4.46,0-1,0-1.31-.47-1.34-1.32s0-1.56,0-2.34c0-1.8.22-2,2.17-2.17,1.12-.11,2.25,0,3.39-.05.06,0,.13-.06.2-.1C6.1,220,6.1,220,8.9,220Z"/><path class="cls-1" d="M123,220h10a1.44,1.44,0,0,1,1.58,1.59c0,.35,0,.7,0,1.21,1.16,0,2.28,0,3.4,0,2.57.11,2.46.63,2.47,2.48,0,4.06-.05,3.29-3.29,3.35h-2.39c-.09.15-.16.21-.16.27-.12,2.7-.19,2.77-2.89,2.77H123Z"/><path class="cls-2" d="M184.75,45.38c-.38-.39-.66-.7-1-1L149.45,10c-1.79-1.78-1.8-3.15,0-4.91,1.37-1.37,2.73-2.74,4.11-4.1a2.81,2.81,0,0,1,4.34,0l42,42a3,3,0,0,1,0,4.65l-41.9,41.91c-1.49,1.48-3,1.47-4.5,0l-4-4c-1.72-1.73-1.73-3.13,0-4.83Q166.59,63.5,183.8,46.29Z"/><path class="cls-2" d="M251.55,97.64h-43.1c-2.28,0-3.36-1.08-3.36-3.36,0-1.74,0-3.48,0-5.22a2.85,2.85,0,0,1,3-3q43.51,0,87,0a2.85,2.85,0,0,1,3,2.95q0,2.73,0,5.46a2.89,2.89,0,0,1-3.18,3.19Z"/></g></g></svg>